<mxfile host="65bd71144e">
    <diagram id="xgss7PxrpyvIWvBH8gS3" name="第 1 页">
        <mxGraphModel dx="732" dy="830" grid="1" gridSize="10" guides="1" tooltips="1" connect="1" arrows="1" fold="1" page="1" pageScale="1" pageWidth="827" pageHeight="1169" math="0" shadow="0">
            <root>
                <mxCell id="0"/>
                <mxCell id="1" parent="0"/>
                <mxCell id="3" value="" style="rounded=0;whiteSpace=wrap;html=1;" parent="1" vertex="1">
                    <mxGeometry x="129" y="10" width="470" height="350" as="geometry"/>
                </mxCell>
                <mxCell id="4" value="Reconciler" style="ellipse;whiteSpace=wrap;html=1;aspect=fixed;" parent="1" vertex="1">
                    <mxGeometry x="230" y="110" width="80" height="80" as="geometry"/>
                </mxCell>
                <mxCell id="5" value="Render" style="ellipse;whiteSpace=wrap;html=1;aspect=fixed;" parent="1" vertex="1">
                    <mxGeometry x="410" y="110" width="80" height="80" as="geometry"/>
                </mxCell>
                <mxCell id="6" value="负责找出变化的组件" style="text;html=1;strokeColor=none;fillColor=none;align=center;verticalAlign=middle;whiteSpace=wrap;rounded=0;" parent="1" vertex="1">
                    <mxGeometry x="190" y="215" width="160" height="20" as="geometry"/>
                </mxCell>
                <mxCell id="7" value="通过变化的组件做dom-diff 显示到页面" style="text;html=1;strokeColor=none;fillColor=none;align=center;verticalAlign=middle;whiteSpace=wrap;rounded=0;" parent="1" vertex="1">
                    <mxGeometry x="365" y="215" width="170" height="35" as="geometry"/>
                </mxCell>
                <mxCell id="8" value="React 15&lt;br style=&quot;font-size: 16px;&quot;&gt;" style="text;html=1;strokeColor=none;fillColor=none;align=center;verticalAlign=middle;whiteSpace=wrap;rounded=0;strokeWidth=2;fontSize=16;" parent="1" vertex="1">
                    <mxGeometry x="120" y="20" width="140" height="20" as="geometry"/>
                </mxCell>
                <mxCell id="10" value="" style="rounded=0;whiteSpace=wrap;html=1;" vertex="1" parent="1">
                    <mxGeometry x="129" y="410" width="470" height="350" as="geometry"/>
                </mxCell>
                <mxCell id="11" value="Reconciler" style="ellipse;whiteSpace=wrap;html=1;aspect=fixed;" vertex="1" parent="1">
                    <mxGeometry x="230" y="510" width="80" height="80" as="geometry"/>
                </mxCell>
                <mxCell id="12" value="Render" style="ellipse;whiteSpace=wrap;html=1;aspect=fixed;" vertex="1" parent="1">
                    <mxGeometry x="410" y="510" width="80" height="80" as="geometry"/>
                </mxCell>
                <mxCell id="13" value="负责找出变化的组件" style="text;html=1;strokeColor=none;fillColor=none;align=center;verticalAlign=middle;whiteSpace=wrap;rounded=0;" vertex="1" parent="1">
                    <mxGeometry x="190" y="615" width="160" height="20" as="geometry"/>
                </mxCell>
                <mxCell id="14" value="通过变化的组件做dom-diff 显示到页面" style="text;html=1;strokeColor=none;fillColor=none;align=center;verticalAlign=middle;whiteSpace=wrap;rounded=0;" vertex="1" parent="1">
                    <mxGeometry x="365" y="615" width="170" height="35" as="geometry"/>
                </mxCell>
                <mxCell id="15" value="React 16-17" style="text;html=1;strokeColor=none;fillColor=none;align=center;verticalAlign=middle;whiteSpace=wrap;rounded=0;strokeWidth=2;fontSize=16;" vertex="1" parent="1">
                    <mxGeometry x="120" y="420" width="140" height="20" as="geometry"/>
                </mxCell>
                <mxCell id="16" value="Schedule" style="rounded=0;whiteSpace=wrap;html=1;" vertex="1" parent="1">
                    <mxGeometry x="300" y="430" width="120" height="60" as="geometry"/>
                </mxCell>
            </root>
        </mxGraphModel>
    </diagram>
</mxfile>